# xmcd
#
# Track frame offsets: 
#        150
#        17272
#        32687
#        45142
#        58810
#        70167
#        84505
#        95600
#        109082
#        125047
#        141300
#        153655
#        165107
#        180320
#        197155
#        213665
#        228650
#        246185
#        259917
#        273692
#        288950
#        300330
#
# Disc length: 4150 seconds
#
# Revision: 0
# Processed by: cddbd v1.4PL0 Copyright (c) Steve Scherf et al.
# Submitted via: ExactAudioCopy v0.95a3
#
DISCID=33103416
DTITLE=Various Artist - Classic Country   Vol 2
DYEAR=1999
DGENRE=
TTITLE0=Gail Davies - Breakaway
TTITLE1=Razzy Bailey - Friends
TTITLE2=Dolly Parton - 9 to 5
TTITLE3=Deborah Allen - I've Been Wrong Before
TTITLE4=Dave and Sugar - Golden Tears
TTITLE5=Bobby Bare - Marie Laveau
TTITLE6=Sylvia - Drifter
TTITLE7=Waylon Jennings - Amanda
TTITLE8=Steve Wariner - All Roads Lead to You
TTITLE9=Vince Gill - Cinderella
TTITLE10=Charley Pride - Night Games
TTITLE11=Waylon Jennings - Mamas Don't Let Your Babies Grow up to Be C
TTITLE11=owboys
TTITLE12=Louise Mandrell - Save Me
TTITLE13=Ronnie Milsap - Smoky Mountain Rain
TTITLE14=Dickey Lee - Rocky
TTITLE15=Jerry Reed - Bird-Whiskey River-On the Road Again-He Stopped 
TTITLE15=Loving Her Today
TTITLE16=Juice Newton - Both to Each Other (Friends and Lovers)
TTITLE17=Earl Thomas Conley - All Tangled up in Love
TTITLE18=Ed Bruce - Nights
TTITLE19=Family Brown - But It's Cheating
TTITLE20=Jim Ed Brown - Saying Hello, Saying I Love You, Saying Goodby
TTITLE20=e
TTITLE21=Eddy Raven - I Got Mexico
EXTD=
EXTT0=
EXTT1=
EXTT2=
EXTT3=
EXTT4=
EXTT5=
EXTT6=
EXTT7=
EXTT8=
EXTT9=
EXTT10=
EXTT11=
EXTT12=
EXTT13=
EXTT14=
EXTT15=
EXTT16=
EXTT17=
EXTT18=
EXTT19=
EXTT20=
EXTT21=
PLAYORDER=
